# xmcd
#
# Track frame offsets: 
#        150
#        25735
#        52850
#        77348
#        95120
#        110912
#        127754
#        154174
#        172592
#        184472
#        202287
#        237669
#        249544
#        265466
#        278934
#        295692
#        308665
#        324325
#        336380
#
# Disc length: 4628 seconds
#
# Revision: 3
# Processed by: cddbd v1.5.2PL0 Copyright (c) Steve Scherf et al.
# Submitted via: ExactAudioCopyFreeDBPlugin 1.0
#
DISCID=13121213
DTITLE=Leon Haywood - The Best of Leon Haywood
DYEAR=1996
DGENRE=Rhythm and Blues
TTITLE0=Daydream
TTITLE1=Strokin' Pts. I and II
TTITLE2=Don't Push It Don't Force It
TTITLE3=T.V. Mama
TTITLE4=Come and Get Yourself Some
TTITLE5=This Feeling's Rated Extra
TTITLE6=I Want'a Do Something Freaky to You
TTITLE7=That's What Time It Is
TTITLE8=Keep It in the Family
TTITLE9=Consider the Source
TTITLE10=Long as There's You (I Got Love)
TTITLE11=Sugar Lump
TTITLE12=La La Song
TTITLE13=One Way Ticket to Loveland
TTITLE14=That Sweet Woman of Mine
TTITLE15=Who You Been Givin' It Up To
TTITLE16=Just Your Fool
TTITLE17=Believe Half of What You See (And None of What You Hear)
TTITLE18=It's Got to Be Mellow
EXTD=
EXTT0=
EXTT1=
EXTT2=
EXTT3=
EXTT4=
EXTT5=
EXTT6=
EXTT7=
EXTT8=
EXTT9=
EXTT10=
EXTT11=
EXTT12=
EXTT13=
EXTT14=
EXTT15=
EXTT16=
EXTT17=
EXTT18=
PLAYORDER=
